<?xml version="1.0" encoding="UTF-8" standalone="no"?>
<!DOCTYPE svg PUBLIC "-//W3C//DTD SVG 1.1//EN"
 "http://www.w3.org/Graphics/SVG/1.1/DTD/svg11.dtd">
<!-- Generated by graphviz version 2.26.3 (20100126.1600)
 -->
<!-- Title: G Pages: 1 -->
<svg width="1184pt" height="388pt"
 viewBox="0.00 0.00 1184.00 388.00" xmlns="http://www.w3.org/2000/svg" xmlns:xlink="http://www.w3.org/1999/xlink">
<g id="graph1" class="graph" transform="scale(1 1) rotate(0) translate(4 384)">
<title>G</title>
<polygon fill="white" stroke="white" points="-4,5 -4,-384 1181,-384 1181,5 -4,5"/>
<g id="graph2" class="cluster"><title>cluster_Global</title>
<polyline fill="none" stroke="gray" points="678,-152 1156,-152 "/>
<path fill="none" stroke="gray" d="M1156,-152C1162,-152 1168,-158 1168,-164"/>
<polyline fill="none" stroke="gray" points="1168,-164 1168,-360 "/>
<path fill="none" stroke="gray" d="M1168,-360C1168,-366 1162,-372 1156,-372"/>
<polyline fill="none" stroke="gray" points="1156,-372 678,-372 "/>
<path fill="none" stroke="gray" d="M678,-372C672,-372 666,-366 666,-360"/>
<polyline fill="none" stroke="gray" points="666,-360 666,-164 "/>
<path fill="none" stroke="gray" d="M666,-164C666,-158 672,-152 678,-152"/>
<text text-anchor="middle" x="917" y="-358.1" font-family="Times Roman,serif" font-size="11.00" fill="gray">\</text>
</g>
<g id="graph3" class="cluster"><title>cluster_\Example</title>
<polyline fill="none" stroke="gray" points="686,-160 1148,-160 "/>
<path fill="none" stroke="gray" d="M1148,-160C1154,-160 1160,-166 1160,-172"/>
<polyline fill="none" stroke="gray" points="1160,-172 1160,-330 "/>
<path fill="none" stroke="gray" d="M1160,-330C1160,-336 1154,-342 1148,-342"/>
<polyline fill="none" stroke="gray" points="1148,-342 686,-342 "/>
<path fill="none" stroke="gray" d="M686,-342C680,-342 674,-336 674,-330"/>
<polyline fill="none" stroke="gray" points="674,-330 674,-172 "/>
<path fill="none" stroke="gray" d="M674,-172C674,-166 680,-160 686,-160"/>
<text text-anchor="middle" x="917" y="-328.1" font-family="Times Roman,serif" font-size="11.00" fill="gray">Example</text>
</g>
<!-- \\Example\\TestCase -->
<g id="node3" class="node"><title>\\Example\\TestCase</title>
<polygon fill="none" stroke="black" points="763,-312 697,-312 697,-276 763,-276 763,-312"/>
<text text-anchor="middle" x="730" y="-291.1" font-family="Times Roman,serif" font-size="11.00">TestCase</text>
</g>
<!-- \\Illuminate\\Foundation\\Testing\\TestCase -->
<g id="node9" class="node"><title>\\Illuminate\\Foundation\\Testing\\TestCase</title>
<ellipse fill="none" stroke="black" cx="205" cy="-294" rx="205.061" ry="18.3848"/>
<text text-anchor="middle" x="205" y="-290.4" font-family="Times Roman,serif" font-size="14.00" fill="gray">\Illuminate\Foundation\Testing\TestCase</text>
</g>
<!-- \\Example\\TestCase&#45;&gt;\\Illuminate\\Foundation\\Testing\\TestCase -->
<g id="edge4" class="edge"><title>\\Example\\TestCase&#45;&gt;\\Illuminate\\Foundation\\Testing\\TestCase</title>
<path fill="none" stroke="black" d="M696.761,-294C641.298,-294 525.564,-294 420.301,-294"/>
<polygon fill="none" stroke="black" points="420.149,-290.5 410.149,-294 420.149,-297.5 420.149,-290.5"/>
</g>
<!-- \\Example\\ExampleTest -->
<g id="node4" class="node"><title>\\Example\\ExampleTest</title>
<polygon fill="none" stroke="black" points="1144,-312 1058,-312 1058,-276 1144,-276 1144,-312"/>
<text text-anchor="middle" x="1101" y="-291.1" font-family="Times Roman,serif" font-size="11.00">ExampleTest</text>
</g>
<!-- \\Example\\ExampleTest&#45;&gt;\\Example\\TestCase -->
<g id="edge6" class="edge"><title>\\Example\\ExampleTest&#45;&gt;\\Example\\TestCase</title>
<path fill="none" stroke="black" d="M1057.35,-294C985.931,-294 844.928,-294 773.564,-294"/>
<polygon fill="none" stroke="black" points="773.143,-290.5 763.143,-294 773.143,-297.5 773.143,-290.5"/>
</g>
<!-- \\Example\\BaseController -->
<g id="node5" class="node"><title>\\Example\\BaseController</title>
<polygon fill="none" stroke="black" points="778,-258 682,-258 682,-222 778,-222 778,-258"/>
<text text-anchor="middle" x="730" y="-237.1" font-family="Times Roman,serif" font-size="11.00">BaseController</text>
</g>
<!-- \\Example\\Controller -->
<g id="node12" class="node"><title>\\Example\\Controller</title>
<ellipse fill="none" stroke="black" cx="205" cy="-240" rx="108.187" ry="18.3848"/>
<text text-anchor="middle" x="205" y="-236.4" font-family="Times Roman,serif" font-size="14.00" fill="gray">\Example\Controller</text>
</g>
<!-- \\Example\\BaseController&#45;&gt;\\Example\\Controller -->
<g id="edge8" class="edge"><title>\\Example\\BaseController&#45;&gt;\\Example\\Controller</title>
<path fill="none" stroke="black" d="M681.55,-240C600.729,-240 436.141,-240 323.223,-240"/>
<polygon fill="none" stroke="black" points="323.144,-236.5 313.144,-240 323.144,-243.5 323.144,-236.5"/>
</g>
<!-- \\Example\\HomeController -->
<g id="node6" class="node"><title>\\Example\\HomeController</title>
<polygon fill="none" stroke="black" points="1152,-258 1050,-258 1050,-222 1152,-222 1152,-258"/>
<text text-anchor="middle" x="1101" y="-237.1" font-family="Times Roman,serif" font-size="11.00">HomeController</text>
</g>
<!-- \\Example\\HomeController&#45;&gt;\\Example\\BaseController -->
<g id="edge10" class="edge"><title>\\Example\\HomeController&#45;&gt;\\Example\\BaseController</title>
<path fill="none" stroke="black" d="M1049.8,-240C981.313,-240 860.175,-240 788.266,-240"/>
<polygon fill="none" stroke="black" points="788.025,-236.5 778.025,-240 788.025,-243.5 788.025,-236.5"/>
</g>
<!-- \\Example\\User -->
<g id="node7" class="node"><title>\\Example\\User</title>
<polygon fill="none" stroke="black" points="1128,-204 1074,-204 1074,-168 1128,-168 1128,-204"/>
<text text-anchor="middle" x="1101" y="-183.1" font-family="Times Roman,serif" font-size="11.00">User</text>
</g>
<!-- \\Eloquent -->
<g id="node15" class="node"><title>\\Eloquent</title>
<ellipse fill="none" stroke="black" cx="730" cy="-126" rx="58.1882" ry="18.3848"/>
<text text-anchor="middle" x="730" y="-122.4" font-family="Times Roman,serif" font-size="14.00" fill="gray">\Eloquent</text>
</g>
<!-- \\Example\\User&#45;&gt;\\Eloquent -->
<g id="edge12" class="edge"><title>\\Example\\User&#45;&gt;\\Eloquent</title>
<path fill="none" stroke="black" d="M1073.84,-178.391C1049.05,-171.68 1011.3,-162.054 978,-156 916.922,-144.898 846.613,-136.832 796.491,-131.878"/>
<polygon fill="none" stroke="black" points="796.721,-128.384 786.428,-130.898 796.042,-135.351 796.721,-128.384"/>
</g>
<!-- \\Illuminate\\Auth\\UserInterface -->
<g id="node17" class="node"><title>\\Illuminate\\Auth\\UserInterface</title>
<ellipse fill="none" stroke="black" cx="730" cy="-72" rx="159.806" ry="18.3848"/>
<text text-anchor="middle" x="730" y="-68.4" font-family="Times Roman,serif" font-size="14.00" fill="gray">\Illuminate\Auth\UserInterface</text>
</g>
<!-- \\Example\\User&#45;&gt;\\Illuminate\\Auth\\UserInterface -->
<g id="edge14" class="edge"><title>\\Example\\User&#45;&gt;\\Illuminate\\Auth\\UserInterface</title>
<path fill="none" stroke="black" stroke-dasharray="1,5" d="M1081.96,-167.744C1059.22,-147.167 1019.09,-114.563 978,-99 951.823,-89.0862 923.057,-82.4572 894.677,-78.0864"/>
<polygon fill="none" stroke="black" points="895.059,-74.6052 884.66,-76.6328 894.054,-81.5326 895.059,-74.6052"/>
</g>
<!-- \\Illuminate\\Auth\\Reminders\\RemindableInterface -->
<g id="node19" class="node"><title>\\Illuminate\\Auth\\Reminders\\RemindableInterface</title>
<ellipse fill="none" stroke="black" cx="730" cy="-18" rx="246.987" ry="18.3848"/>
<text text-anchor="middle" x="730" y="-14.4" font-family="Times Roman,serif" font-size="14.00" fill="gray">\Illuminate\Auth\Reminders\RemindableInterface</text>
</g>
<!-- \\Example\\User&#45;&gt;\\Illuminate\\Auth\\Reminders\\RemindableInterface -->
<g id="edge16" class="edge"><title>\\Example\\User&#45;&gt;\\Illuminate\\Auth\\Reminders\\RemindableInterface</title>
<path fill="none" stroke="black" stroke-dasharray="1,5" d="M1091.32,-167.918C1073.53,-136.721 1032.43,-73.4033 978,-45 967.576,-39.5604 956.574,-34.9709 945.233,-31.1123"/>
<polygon fill="none" stroke="black" points="946.224,-27.7545 935.633,-28.0404 944.09,-34.4216 946.224,-27.7545"/>
</g>
</g>
</svg>
